<svg width="783" height="142" viewBox="0 0 783 142" fill="none" xmlns="http://www.w3.org/2000/svg">
<path d="M200.5 3.12436L120.897 141H144.069L207.25 31.567L270.431 141H294.103L214.428 3L200.5 3.12436Z" fill="white"/>
<path d="M144.314 141H120.897L200.5 3.12436L214.428 3L294.103 141H270.162M270.567 141.235L207.067 31.2501M207.433 31.25L143.933 141.235" stroke="black"/>
<path d="M377.103 140.111L297.5 2.23535H320.671L383.853 111.668L447.034 2.23535H470.705L391.031 140.235L377.103 140.111Z" fill="white"/>
<path d="M320.917 2.23535H297.5L377.103 140.111L391.031 140.235L470.705 2.23535H446.764M447.17 2L383.67 111.985M384.036 111.985L320.536 2.00012" stroke="black"/>
<path d="M554.103 3.12436L474.5 141H497.671L560.853 31.567L624.034 141H647.705L568.031 3L554.103 3.12436Z" fill="white"/>
<path d="M497.917 141H474.5L554.103 3.12436L568.031 3L647.705 141H623.764M624.17 141.235L560.67 31.2501M561.036 31.25L497.536 141.235" stroke="black"/>
<path d="M226.898 111L207.5 140.099L188.101 111L207.5 81.9014L226.898 111Z" fill="#FF0000" stroke="black"/>
<path d="M580.898 111L561.5 140.099L542.101 111L561.5 81.9014L580.898 111Z" fill="#FF0000" stroke="black"/>
<mask id="path-9-outside-1_2008_271" maskUnits="userSpaceOnUse" x="663.5" y="1" width="119" height="141" fill="black">
<rect fill="white" x="663.5" y="1" width="119" height="141"/>
<path d="M665.484 2.13281H738.922C745.237 2.13281 750.966 3.69531 756.109 6.82031C761.318 9.88021 765.452 13.9818 768.512 19.125C771.637 24.2682 773.199 29.9974 773.199 36.3125V50.1797C773.199 56.4948 771.669 62.1914 768.609 67.2695C765.615 72.3477 761.513 76.3841 756.305 79.3789C751.096 82.3737 745.27 83.8711 738.824 83.8711L780.23 141H755.133L713.727 83.8711H697.809V63.3633H738.922C742.763 63.3633 746.018 62.0612 748.688 59.457C751.357 56.7878 752.691 53.5977 752.691 49.8867V36.3125C752.691 32.5365 751.357 29.3138 748.688 26.6445C746.018 23.9753 742.763 22.6406 738.922 22.6406H686.09V141H665.484V2.13281Z"/>
</mask>
<path d="M665.484 2.13281H738.922C745.237 2.13281 750.966 3.69531 756.109 6.82031C761.318 9.88021 765.452 13.9818 768.512 19.125C771.637 24.2682 773.199 29.9974 773.199 36.3125V50.1797C773.199 56.4948 771.669 62.1914 768.609 67.2695C765.615 72.3477 761.513 76.3841 756.305 79.3789C751.096 82.3737 745.27 83.8711 738.824 83.8711L780.23 141H755.133L713.727 83.8711H697.809V63.3633H738.922C742.763 63.3633 746.018 62.0612 748.688 59.457C751.357 56.7878 752.691 53.5977 752.691 49.8867V36.3125C752.691 32.5365 751.357 29.3138 748.688 26.6445C746.018 23.9753 742.763 22.6406 738.922 22.6406H686.09V141H665.484V2.13281Z" fill="white"/>
<path d="M665.484 2.13281V1.13281H664.484V2.13281H665.484ZM756.109 6.82031L755.59 7.67493L755.596 7.67877L755.603 7.68253L756.109 6.82031ZM768.512 19.125L767.652 19.6363L767.657 19.6443L768.512 19.125ZM768.609 67.2695L767.753 66.7534L767.748 66.7615L768.609 67.2695ZM738.824 83.8711V82.8711H736.864L738.015 84.4579L738.824 83.8711ZM780.23 141V142H782.19L781.04 140.413L780.23 141ZM755.133 141L754.323 141.587L754.623 142H755.133V141ZM713.727 83.8711L714.536 83.2842L714.237 82.8711H713.727V83.8711ZM697.809 83.8711H696.809V84.8711H697.809V83.8711ZM697.809 63.3633V62.3633H696.809V63.3633H697.809ZM748.688 59.457L749.386 60.1729L749.395 60.1641L748.688 59.457ZM686.09 22.6406V21.6406H685.09V22.6406H686.09ZM686.09 141V142H687.09V141H686.09ZM665.484 141H664.484V142H665.484V141ZM665.484 2.13281V3.13281H738.922V2.13281V1.13281H665.484V2.13281ZM738.922 2.13281V3.13281C745.063 3.13281 750.611 4.64981 755.59 7.67493L756.109 6.82031L756.629 5.9657C751.321 2.74081 745.411 1.13281 738.922 1.13281V2.13281ZM756.109 6.82031L755.603 7.68253C760.667 10.6579 764.679 14.6393 767.652 19.6363L768.512 19.125L769.371 18.6137C766.224 13.3242 761.968 9.10252 756.616 5.9581L756.109 6.82031ZM768.512 19.125L767.657 19.6443C770.682 24.6231 772.199 30.1711 772.199 36.3125H773.199H774.199C774.199 29.8237 772.591 23.9134 769.366 18.6057L768.512 19.125ZM773.199 36.3125H772.199V50.1797H773.199H774.199V36.3125H773.199ZM773.199 50.1797H772.199C772.199 56.3252 770.713 61.8413 767.753 66.7534L768.609 67.2695L769.466 67.7856C772.626 62.5415 774.199 56.6643 774.199 50.1797H773.199ZM768.609 67.2695L767.748 66.7615C764.843 71.6877 760.868 75.6017 755.806 78.512L756.305 79.3789L756.803 80.2458C762.158 77.1665 766.386 73.0076 769.471 67.7775L768.609 67.2695ZM756.305 79.3789L755.806 78.512C750.761 81.4133 745.108 82.8711 738.824 82.8711V83.8711V84.8711C745.431 84.8711 751.432 83.3341 756.803 80.2458L756.305 79.3789ZM738.824 83.8711L738.015 84.4579L779.421 141.587L780.23 141L781.04 140.413L739.634 83.2842L738.824 83.8711ZM780.23 141V140H755.133V141V142H780.23V141ZM755.133 141L755.943 140.413L714.536 83.2842L713.727 83.8711L712.917 84.4579L754.323 141.587L755.133 141ZM713.727 83.8711V82.8711H697.809V83.8711V84.8711H713.727V83.8711ZM697.809 83.8711H698.809V63.3633H697.809H696.809V83.8711H697.809ZM697.809 63.3633V64.3633H738.922V63.3633V62.3633H697.809V63.3633ZM738.922 63.3633V64.3633C743.015 64.3633 746.524 62.9652 749.386 60.1728L748.688 59.457L747.989 58.7412C745.513 61.1572 742.511 62.3633 738.922 62.3633V63.3633ZM748.688 59.457L749.395 60.1641C752.248 57.311 753.691 53.868 753.691 49.8867H752.691H751.691C751.691 53.3274 750.466 56.2646 747.98 58.7499L748.688 59.457ZM752.691 49.8867H753.691V36.3125H752.691H751.691V49.8867H752.691ZM752.691 36.3125H753.691C753.691 32.2713 752.251 28.7943 749.395 25.9374L748.688 26.6445L747.98 27.3516C750.462 29.8333 751.691 32.8016 751.691 36.3125H752.691ZM748.688 26.6445L749.395 25.9374C746.534 23.077 743.023 21.6406 738.922 21.6406V22.6406V23.6406C742.503 23.6406 745.502 24.8736 747.98 27.3516L748.688 26.6445ZM738.922 22.6406V21.6406H686.09V22.6406V23.6406H738.922V22.6406ZM686.09 22.6406H685.09V141H686.09H687.09V22.6406H686.09ZM686.09 141V140H665.484V141V142H686.09V141ZM665.484 141H666.484V2.13281H665.484H664.484V141H665.484Z" fill="black" mask="url(#path-9-outside-1_2008_271)"/>
<mask id="path-11-outside-2_2008_271" maskUnits="userSpaceOnUse" x="30.5" y="0" width="67" height="141" fill="black">
<rect fill="white" x="30.5" width="67" height="141"/>
<path d="M31.5859 119.492H56.3906C61.5339 119.492 65.9284 117.702 69.5742 114.121C73.2201 110.54 75.043 106.211 75.043 101.133V1.13281H95.5508V101.426C95.5508 108.522 93.793 115 90.2773 120.859C86.7617 126.654 82.0417 131.309 76.1172 134.824C70.1927 138.275 63.6172 140 56.3906 140H31.5859V119.492Z"/>
</mask>
<path d="M31.5859 119.492H56.3906C61.5339 119.492 65.9284 117.702 69.5742 114.121C73.2201 110.54 75.043 106.211 75.043 101.133V1.13281H95.5508V101.426C95.5508 108.522 93.793 115 90.2773 120.859C86.7617 126.654 82.0417 131.309 76.1172 134.824C70.1927 138.275 63.6172 140 56.3906 140H31.5859V119.492Z" fill="white"/>
<path d="M31.5859 119.492V118.492H30.5859V119.492H31.5859ZM75.043 1.13281V0.132812H74.043V1.13281H75.043ZM95.5508 1.13281H96.5508V0.132812H95.5508V1.13281ZM90.2773 120.859L91.1323 121.378L91.1348 121.374L90.2773 120.859ZM76.1172 134.824L76.6205 135.688L76.6275 135.684L76.1172 134.824ZM31.5859 140H30.5859V141H31.5859V140ZM31.5859 119.492V120.492H56.3906V119.492V118.492H31.5859V119.492ZM56.3906 119.492V120.492C61.794 120.492 66.4407 118.6 70.2749 114.835L69.5742 114.121L68.8735 113.408C65.416 116.803 61.2737 118.492 56.3906 118.492V119.492ZM69.5742 114.121L70.2749 114.835C74.1108 111.067 76.043 106.481 76.043 101.133H75.043H74.043C74.043 105.941 72.3293 110.014 68.8735 113.408L69.5742 114.121ZM75.043 101.133H76.043V1.13281H75.043H74.043V101.133H75.043ZM75.043 1.13281V2.13281H95.5508V1.13281V0.132812H75.043V1.13281ZM95.5508 1.13281H94.5508V101.426H95.5508H96.5508V1.13281H95.5508ZM95.5508 101.426H94.5508C94.5508 108.348 92.8385 114.647 89.4198 120.345L90.2773 120.859L91.1348 121.374C94.7474 115.353 96.5508 108.696 96.5508 101.426H95.5508ZM90.2773 120.859L89.4224 120.341C85.9934 125.992 81.3926 130.531 75.6069 133.964L76.1172 134.824L76.6275 135.684C82.6907 132.086 87.5301 127.315 91.1323 121.378L90.2773 120.859ZM76.1172 134.824L75.6139 133.96C69.8506 137.317 63.4503 139 56.3906 139V140V141C63.7841 141 70.5348 139.233 76.6205 135.688L76.1172 134.824ZM56.3906 140V139H31.5859V140V141H56.3906V140ZM31.5859 140H32.5859V119.492H31.5859H30.5859V140H31.5859Z" fill="black" mask="url(#path-11-outside-2_2008_271)"/>
<path d="M31 119V140.5H0.866211L13.2881 119H31Z" fill="white" stroke="black"/>
<path d="M30.5 119.5H56.5L41.5 140H59H31H1.5L13.5 119.5H30.5Z" fill="white"/>
</svg>
